<svg width="512" height="512" viewBox="0 0 81.92 81.92" aria-hidden="true" class="iconify iconify--noto" preserveAspectRatio="xMidYMid" xmlns="http://www.w3.org/2000/svg"><path d="M54.947 71.53s21.87-.21 22.16.02c.3.23.52 1.26.52 3.52 0 2.27-1.11 3.17-1.53 3.2-1.18.08-3.28 0-3.28 0s1.01 2.44 1.01 3.36c0 .92-.17 14.62-.17 14.62l-18.49-1.6zM30.637 71.71l14.37.3s1.09 1.26 1.01 3.28c-.08 2.02-1.24 3.53-1.24 3.53l-3.52.15s.15 1.87.15 3.74c0 .88.11 12.08.11 12.08l-3.23 1.33-12.6-9.08z" fill="#2f7c31" style="fill:#682702;fill-opacity:1" transform="matrix(.62805 0 0 .62805 .885 -2.782)"/><path fill="#4e433d" d="m62.771 49.384 3.059 2.801-6.331 6.965-4.962-.948z"/><path d="m58.381 36.446 8.472-1.72s.038-.78-.332-2.23c-1.005-3.944-6.099-15.086-6.099-15.086l-6.142-1.77-.113 20.028z" fill="#afe3fb"/><path d="M36.506 17.97c-.075.872.013 22.64.013 22.64l-4.214-.621-.082-22.083z" fill="#b0b0b0"/><path d="m66.018 41.427.848-1.413s.157-1.652.088-3.235l-.088-2.091s-8.215.044-9.207.044c-.992 0-2.104-.83-2.104-2.6 0-1.771-.258-13.478-.258-13.478l8.228-7.493.496-2.82s-2.267-1.77-5.477-1.438c-3.209.333-5.093 2.82-5.093 2.82s-36.96.12-38.405.113c-3.781-.019-5.307.835-7.738 3.592-1.903 2.155-2.939 6.092-3.159 8.027-.22 1.934-1.884 14.941-1.827 15.883.056.942.22 2.21 1.218 2.38.999.164 2.544.943 2.544.943l11.066.389 1.777-.082s.063-18.087.006-19.136c-.056-1.05.427-2.16 1.866-2.274 1.438-.113 9.307.082 15.556.025 6.256-.056 15.394-.2 15.394-.2l.176 20.291 8.397 2.808z" fill="#ffb803"/><path d="M110.327 19.36c.17 1.57-14.51 14.66-14.78 14.66-.26 0-8.83.26-8.99.17-.33-.18 13.81-16.68 13.81-16.68s9.79.28 9.96 1.85z" fill="#536f7d" style="fill:#b0b0b0;fill-opacity:1" transform="matrix(.62805 0 0 .62805 .885 -2.782)"/><path d="m105.107 67.63-23.87-.12.08 26.91s-8.57-.01-10.55-.01c-1.98 0-3.6-1.28-3.72-3.49-.12-2.21.12-8.6.12-9.99 0-1.39-.58-2.44-2.67-2.56-2.09-.12-7.74-.03-7.74-.03V67.71l-6.75-.05s.09 20.84-.02 22.7c-.11 1.86-1.17 3.71-2.8 3.71s-12.2.12-12.2.12l-1.04-5.54s1.04-10.03-.59-14.1-4.61-6.53-4.61-6.53l-24.5-.36s-.29 28.96-.29 29.78c0 .81 1.39 3.49 1.39 3.49l38.47-.12 47.65-.12 5.58-3.49s-1.16-.58-3.02-.7-3.14-1.28-2.21-2.79c.93-1.51 8.12-7.29 11.16-15.34 1.93-5.16 2.13-10.74 2.13-10.74z" fill="#02ab46" style="fill:#011;fill-opacity:1" transform="matrix(.62805 0 0 .62805 .885 -2.782)"/><path d="M115.977 121.14c7.11-4.76 8.97-14.2 4.21-21.31-4.76-7.11-14.33-9.08-21.29-4.11-7.64 5.46-9.01 14.39-4.25 21.5 4.76 7.11 14.22 8.68 21.33 3.92z" fill="#4e433d" style="fill:#38312d;fill-opacity:1" transform="matrix(.62805 0 0 .62805 .885 -2.782)"/><path d="M66.678 69.017c-2.261-1.011-3.097-3.505-2.155-5.69.792-1.828 3.134-3.11 5.32-2.192 2.098.885 3.417 3.165 2.512 5.564-.848 2.255-3.303 3.38-5.677 2.318z" fill="#1c1d1e"/><path d="M69.334 66.655a1.813 1.813 0 0 0 .509-2.53c-.565-.842-1.702-1.075-2.531-.484-.91.653-1.074 1.714-.509 2.556.56.842 1.683 1.024 2.531.458z" fill="#4e433d"/><path d="M44.277 107.38s1.82-22.41-20.16-22.93c-21.98-.52-20.68 23.01-20.25 23.36.43.35 40.41-.43 40.41-.43z" fill="#2f7c31" style="fill:#696969;fill-opacity:1" transform="matrix(.62805 0 0 .62805 .885 -2.782)"/><path d="M8.087 107.54c0 9.14 7.26 16.4 16.4 16.4 9.14 0 16.57-7.31 16.3-16.45-.3-10.03-7.41-16.55-16.55-16.55s-16.15 7.46-16.15 16.6z" fill="#4e433d" style="fill:#38312d;fill-opacity:1" transform="matrix(.62805 0 0 .62805 .885 -2.782)"/><path d="M13.953 61.053c2.236-1.407 4.949-.666 6.324 1.47 1.15 1.79.892 4.629-1.218 6.017-2.029 1.331-4.842 1.149-6.431-1.08-1.489-2.086-1.03-4.93 1.325-6.407z" fill="#1c1d1e"/><path d="M14.468 64.815c0 1.087.86 1.953 1.947 1.953 1.086 0 1.966-.873 1.934-1.96-.037-1.192-.879-1.971-1.965-1.971-1.087 0-1.916.885-1.916 1.978z" fill="#4e433d"/><path d="M17.772 42.658c.326.22.307 3.077.157 3.127-.24.082-8.554.082-8.554.082l-.082-3.09s8.36-.195 8.479-.12z" fill="#ff8b00"/><path d="M92.247 105.27s-4.27.27-4.71-.04c-.44-.32 9.19-19.34 21.29-21.08 8.28-1.19 13.31 2.39 15.2 6.43 1.87 3.99 1.23 8.45 1.07 8.58-.32.25-10.3-4.95-18.92-2.96-9.21 2.12-13.93 9.07-13.93 9.07z" fill="#2f7c31" style="fill:#696969;fill-opacity:1" transform="matrix(.62805 0 0 .62805 .885 -2.782)"/><path d="M68.047 46.979c0 1.149 2.889 3.919 6.418 4.201 1.464.113 3.272-1.381 3.21-4.358-.076-3.285-1.464-4.321-2.89-4.359-3.573-.1-6.738 3.046-6.738 4.516z" fill="#b0b0b0"/><path d="M75.238 49.233c.791.038 1.463-1.111 1.388-2.776-.057-1.224-.672-2.418-1.269-2.418-.753 0-1.268 1.15-1.268 2.657 0 1.193.44 2.506 1.149 2.537z" fill="#fff"/></svg>